<svg preserveAspectRatio="none" width="100%" height="100%" overflow="visible" style="display: block;" viewBox="0 0 150.001 29.0003" fill="none" xmlns="http://www.w3.org/2000/svg">
<g id="Logo">
<path id="Union" d="M14.7741 5.2334C12.907 5.2334 11.0814 5.77694 9.52894 6.79492C7.97638 7.81311 6.76597 9.26091 6.0514 10.9541C5.33689 12.6472 5.15004 14.5102 5.51429 16.3076C5.87857 18.1051 6.77795 19.7559 8.09828 21.0518C9.41862 22.3477 11.1009 23.2303 12.9323 23.5879C14.7635 23.9453 16.6614 23.7618 18.3864 23.0605C20.1114 22.3592 21.5863 21.1722 22.6237 19.6484C23.6611 18.1246 24.2145 16.3327 24.2145 14.5H29.5475C29.5475 17.3678 28.6806 20.1712 27.0573 22.5557C25.434 24.9402 23.1268 26.799 20.4274 27.8965C17.7279 28.994 14.757 29.2812 11.8912 28.7217C9.02565 28.1622 6.39379 26.7806 4.32777 24.7529C2.26173 22.7251 0.853889 20.1417 0.283825 17.3291C-0.2862 14.5164 0.00653001 11.6007 1.12465 8.95117C2.24281 6.30164 4.13658 4.03664 6.56605 2.44336C8.99549 0.850154 11.8522 -3.41977e-08 14.7741 0V5.2334ZM102.115 5.81152C100.951 6.10247 99.1107 6.25397 98.0358 6.25977C96.7025 6.27356 95.78 6.76912 95.1412 7.36719C94.825 7.66158 94.5762 7.98618 94.3883 8.28223C94.1989 8.57368 94.0605 8.84354 93.9596 9.04395C94.7992 8.78924 95.7162 8.62793 96.7496 8.62793C100.585 8.62794 102.871 10.7155 102.871 14.3994C102.871 15.3992 102.698 16.4264 102.434 17.4277C101.788 19.8889 99.9994 24.1444 94.4948 24.1445C90.5993 24.1445 88.4596 22.1722 88.4596 18.2871C88.4596 17.7853 88.5 17.2249 88.5856 16.6396C88.6056 16.4938 88.6253 16.3526 88.6471 16.2021C89.7063 9.7638 92.5682 3.65993 98.8473 3.60059C99.6827 3.5908 101.381 3.50606 102.535 3.23926L102.115 5.81152ZM47.0895 7.55371C54.6974 7.55393 53.5654 13.6342 53.0963 15.7813C51.6948 21.8289 47.906 24.0654 42.8346 24.0654C39.6595 24.0654 35.0889 23.0832 36.7457 15.9297C37.3646 13.2443 39.2669 7.55371 47.0895 7.55371ZM69.4645 8.03418C69.2391 8.74477 68.8411 10.2075 68.6373 10.9502L68.3493 11.1299C67.1386 11.1035 66.2202 11.1035 64.4743 11.1035C64.3226 11.7544 63.8507 13.6654 63.0641 17.0605C62.4723 19.6277 61.9846 21.9792 61.7028 23.4688L61.4342 23.709C59.9642 23.709 57.5522 23.7088 56.5387 23.7383L56.3649 23.5615C56.646 22.6062 57.3343 20.0427 58.0582 16.9121C58.6447 14.3786 59.1643 12.1466 59.3668 11.1299C58.1375 11.1593 56.2444 11.159 55.3209 11.1895L55.153 10.9824C55.3954 10.208 55.7383 8.86821 55.9537 8.06445L56.234 7.91113C57.0513 7.94048 60.1613 7.9707 62.6647 7.9707C65.6906 7.9707 68.6363 7.9115 69.2555 7.88086L69.4645 8.03418ZM86.9977 8.06445C86.7821 8.86905 85.8605 12.7106 84.9782 16.5234C84.2656 19.595 83.6126 22.6615 83.444 23.5264L83.2184 23.709C81.9056 23.709 79.4917 23.7089 78.233 23.7383L78.0973 23.5264C78.3668 22.486 78.9574 20.0732 79.65 17.0898C80.1732 14.8241 80.7022 12.4111 80.9118 11.5156C80.4215 11.5156 79.3309 11.4854 78.4127 11.4854C77.4317 11.4854 76.3284 11.5156 75.8375 11.5156C75.6849 12.1719 75.0875 14.6188 74.5368 17.001C73.887 19.8028 73.3113 22.4266 73.0875 23.5264L72.7994 23.709C71.3023 23.709 69.3786 23.7089 67.8414 23.7383L67.6725 23.5615C67.988 22.336 68.7888 19.0001 69.5573 15.6895C70.3299 12.3564 70.9972 9.07539 71.2145 8.15039L71.4713 7.94141C73.1223 7.94141 74.7896 8.00195 78.8844 8.00195C82.0924 8.00195 85.2 7.91136 86.858 7.88086L86.9977 8.06445ZM135.498 8.74512L135.186 10.1543L134.729 12.3506C133.654 17.1275 133.254 18.6654 132.322 23.416L132.114 23.5869L129.145 23.6719L129 23.4746L130.197 18.582L130.546 16.9785C129.271 16.9508 127.993 16.9297 126.718 16.9297C125.722 16.9297 124.964 16.9406 124.188 16.9619C123.75 18.8859 123.386 20.5792 122.827 23.416L122.619 23.5869L119.646 23.6719L119.501 23.4746L120.696 18.582L121.167 16.4502C121.95 13.0931 122.098 12.3561 122.564 9.25781L122.77 9.05859C124.135 8.88742 124.458 8.83041 125.855 8.54688L126.006 8.74512L125.689 10.1543L125.236 12.3506L124.761 14.4277C125.832 14.4536 126.904 14.4707 127.981 14.4707C129.117 14.4707 129.865 14.4505 131.127 14.4258C131.536 12.6071 131.702 11.6133 132.06 9.25781L132.263 9.05859C133.634 8.88742 133.953 8.83041 135.353 8.54688L135.498 8.74512ZM141.539 8.74512L141.226 10.1543L140.77 12.3506L140.214 14.793C140.911 14.2017 141.315 13.8297 142.277 12.9229C143.294 11.9564 145.772 9.45634 146.238 8.97168L146.56 8.80273H149.915L150.001 9.05859C149.709 9.31329 149.561 9.42747 148.393 10.3926C147.927 10.7666 147.641 11.0489 147.088 11.5313L143.294 14.9424L147.814 23.334L147.64 23.5576L144.403 23.6455L144.17 23.4746C143.411 21.7102 143.208 21.3144 142.161 19.2354L140.118 15.1982C139.476 17.9949 139.08 19.7575 138.358 23.416L138.156 23.5869L135.182 23.6719L135.038 23.4746L136.233 18.582L136.699 16.4502C137.484 13.0931 137.63 12.3561 138.096 9.25781L138.302 9.05859C139.673 8.88747 139.991 8.83033 141.392 8.54688L141.539 8.74512ZM119.874 8.62793L120.019 8.85547L118.702 14.3877C117.678 18.7792 117.469 19.8588 116.886 23.2559L116.677 23.4561L113.925 23.5146L113.781 23.3115L113.986 22.1729C113.488 22.5711 112.196 23.626 109.709 23.626C106.723 23.6258 104.291 21.5689 104.291 18.0078C104.291 15.7576 105.405 13.3066 106.633 11.8838C109.359 8.76979 113.135 8.60156 115.83 8.60156L119.874 8.62793ZM96.7496 10.7158C92.1519 10.7158 91.5641 17.6843 91.5641 18.7412C91.5643 21.028 92.9704 22.0283 94.5543 22.0283C97.6875 22.0283 98.8583 18.8869 99.3873 16.541C99.5916 15.7137 99.7369 14.887 99.7369 14.0879C99.7369 11.2009 97.8333 10.7158 96.7496 10.7158ZM115.215 10.7432C114.25 10.7432 112.345 10.8002 110.616 11.9404C107.542 13.9884 107.483 17.6686 107.483 17.8086C107.483 19.1761 108.243 21.371 110.911 21.3711C111.7 21.3711 112.698 21.1695 113.458 20.7119C113.781 20.5172 114.102 20.2265 114.422 19.9766L116.533 10.7686C116.091 10.7686 115.656 10.7432 115.215 10.7432ZM46.1266 10.6523C43.8342 10.6524 42.8179 12.7978 42.1422 15.7197C41.5104 18.4315 41.3677 20.9071 43.8727 20.9072C46.1026 20.9072 47.147 18.6384 47.8239 15.7197C48.3017 13.6642 48.8172 10.6523 46.1266 10.6523ZM14.7789 8.11914C18.3663 8.11934 21.274 10.9741 21.2741 14.4951C21.2741 18.0161 18.3663 20.8709 14.7789 20.8711C11.1914 20.8711 8.28285 18.0163 8.28285 14.4951C8.28289 10.974 11.1914 8.11914 14.7789 8.11914ZM23.1149 2.66211C25.1748 2.66211 26.8451 4.30055 26.8453 6.32227C26.8453 8.3442 25.1749 9.9834 23.1149 9.9834C21.0548 9.98338 19.3844 8.34419 19.3844 6.32227C19.3847 4.30056 21.055 2.66213 23.1149 2.66211Z" fill="var(--fill-0, black)"/>
</g>
</svg>
