<svg preserveAspectRatio="none" width="100%" height="100%" overflow="visible" style="display: block;" viewBox="0 0 150 22.981" fill="none" xmlns="http://www.w3.org/2000/svg">
<g id="Logos_Images">
<path id="Vector" d="M67.0839 6.88355L70.2134 4.57433H59.7333V18.4086H70.2134V16.0974H62.7268V12.5665H69.1256V10.2572H62.7268V6.88355H67.0839Z" fill="var(--fill-0, #21A038)"/>
<path id="Vector_2" d="M51.8155 9.96188H48.1849V6.88355H53.9931L57.1245 4.57433H45.1914V18.4086H51.4289C54.9236 18.4086 56.9419 16.8224 56.9419 14.0606C56.9419 11.4119 55.1276 9.96188 51.8155 9.96188ZM51.3163 16.0974H48.1849V12.2711H51.3163C53.2219 12.2711 54.1058 12.9059 54.1058 14.1967C54.1058 15.4875 53.1539 16.0974 51.3163 16.0974Z" fill="var(--fill-0, #21A038)"/>
<path id="Vector_3" d="M78.698 4.57438H73.0044V18.4086H75.9979V14.4902H78.7213C82.35 14.4902 84.6189 12.5895 84.6189 9.5323C84.6189 6.47508 82.35 4.57438 78.698 4.57438ZM78.63 12.181H75.9765V6.8836H78.63C80.559 6.8836 81.6021 7.83491 81.6021 9.5323C81.6021 11.2297 80.559 12.181 78.63 12.181Z" fill="var(--fill-0, #21A038)"/>
<path id="Vector_4" d="M40.0627 15.4184C39.2701 15.85 38.3843 16.0763 37.4772 16.0763C34.777 16.0763 32.8267 14.1507 32.8267 11.502C32.8267 8.85327 34.777 6.92764 37.4772 6.92764C38.4523 6.90654 39.4061 7.223 40.1987 7.7888L42.3549 6.20457L42.2189 6.06839C40.9718 4.95789 39.2915 4.3921 37.3859 4.3921C35.3229 4.3921 33.4386 5.09407 32.0788 6.36184C30.7171 7.67564 29.9459 9.50921 29.9906 11.4118C29.9673 13.3355 30.7171 15.1921 32.0788 16.55C33.5066 17.8869 35.4122 18.6349 37.3645 18.5888C39.5188 18.5888 41.4011 17.8408 42.6715 16.4829L40.7445 15.0559L40.0627 15.4184Z" fill="var(--fill-0, #21A038)"/>
<path id="Vector_5" d="M120.623 4.59739V18.4297H123.616V12.7698H129.992V18.4297H132.987V4.59739H129.992V10.2803H123.616V4.59739H120.623ZM115.473 18.4297H118.626L112.773 4.59739H109.733L103.767 18.4297H106.784L107.987 15.6448H114.339L115.473 18.4297ZM108.894 13.3356L111.207 7.78888L113.385 13.3356H108.894ZM139.703 12.8389H141.562L146.144 18.4086H150L143.875 11.2527L149.229 4.57438H145.804L141.358 10.5066H139.703V4.57438H136.707V18.4086H139.703V12.8389ZM93.8759 9.98494V6.90662H101.702V4.59739H90.8805V18.4297H97.12C100.613 18.4297 102.633 16.8455 102.633 14.0836C102.633 11.4349 100.819 9.98494 97.5046 9.98494H93.8759ZM93.8759 16.1205V12.2942H97.0073C98.911 12.2942 99.7968 12.929 99.7968 14.2198C99.7968 15.5106 98.8663 16.1435 97.0073 16.1435H93.8759V16.1205Z" fill="var(--fill-0, #21A038)"/>
<path id="Vector_6" d="M20.6221 4.48419C21.166 5.18616 21.6206 5.95526 22.0052 6.77039L11.5251 14.4902L7.12332 11.7283V8.42367L11.5018 11.1625L20.6221 4.48419Z" fill="var(--fill-0, #21A038)"/>
<path id="Vector_7" d="M2.65352 11.502C2.65352 11.3428 2.65352 11.2085 2.67683 11.0494L0.0233106 10.9132C0.0233106 11.0954 0 11.2987 0 11.479C0 14.6494 1.29374 17.5244 3.38003 19.6073L5.26236 17.7277C3.65199 16.1435 2.65352 13.9474 2.65352 11.502Z" fill="url(#paint0_linear_0_4)"/>
<path id="Vector_8" d="M11.5015 2.67167C11.6608 2.67167 11.7968 2.67167 11.9561 2.69469L12.0921 0.045989C11.9095 0.045989 11.7055 0.022974 11.5248 0.022974C8.34877 0.022974 5.46797 1.31376 3.37973 3.39666L5.26206 5.27626C6.85106 3.66901 9.07334 2.67167 11.5015 2.67167Z" fill="url(#paint1_linear_0_4)"/>
<path id="Vector_9" d="M11.5018 20.3323C11.3425 20.3323 11.2066 20.3323 11.0473 20.3093L10.9113 22.958C11.0939 22.958 11.2979 22.981 11.4785 22.981C14.6546 22.981 17.5373 21.6902 19.6236 19.6073L17.7413 17.7277C16.1523 19.358 13.9514 20.3323 11.5018 20.3323Z" fill="url(#paint2_linear_0_4)"/>
<path id="Vector_10" d="M16.4922 4.21184L18.7378 2.55856C16.7642 0.974323 14.2466 0 11.5018 0V2.6487C13.3628 2.67172 15.0858 3.23751 16.4922 4.21184Z" fill="url(#paint3_linear_0_4)"/>
<path id="Vector_11" d="M23.0273 11.502C23.0273 10.8 22.9593 10.121 22.8447 9.44208L20.3718 11.2757C20.3718 11.3428 20.3718 11.4348 20.3718 11.502C20.3718 14.1066 19.2373 16.4388 17.4463 18.046L19.2373 20.0158C21.5529 17.9329 23.0273 14.8757 23.0273 11.502Z" fill="var(--fill-0, #21A038)"/>
<path id="Vector_12" d="M11.5018 20.3323C8.89298 20.3323 6.5561 19.2007 4.94573 17.4112L2.9721 19.2007C5.0817 21.5329 8.12179 22.981 11.5018 22.981V20.3323Z" fill="url(#paint4_linear_0_4)"/>
<path id="Vector_13" d="M5.58094 4.95792L3.78797 2.98818C1.45108 5.0941 0 8.12831 0 11.502H2.65352C2.65352 8.92042 3.78797 6.56709 5.58094 4.95792Z" fill="url(#paint5_linear_0_4)"/>
</g>
<defs>
<linearGradient id="paint0_linear_0_4" x1="3.09706" y1="19.2852" x2="0.433244" y2="11.4512" gradientUnits="userSpaceOnUse">
<stop offset="0.1444" stop-color="#F2E913"/>
<stop offset="0.3037" stop-color="#E7E518"/>
<stop offset="0.5823" stop-color="#CADB26"/>
<stop offset="0.891" stop-color="#A3CD39"/>
</linearGradient>
<linearGradient id="paint1_linear_0_4" x1="4.13661" y1="3.09766" x2="10.9998" y2="0.436681" gradientUnits="userSpaceOnUse">
<stop offset="0.0592" stop-color="#0FA8E0"/>
<stop offset="0.5385" stop-color="#0099F9"/>
<stop offset="0.9234" stop-color="#0291EB"/>
</linearGradient>
<linearGradient id="paint2_linear_0_4" x1="10.7563" y1="20.7282" x2="18.9508" y2="18.844" gradientUnits="userSpaceOnUse">
<stop offset="0.1226" stop-color="#A3CD39"/>
<stop offset="0.2846" stop-color="#86C339"/>
<stop offset="0.8693" stop-color="#21A038"/>
</linearGradient>
<linearGradient id="paint3_linear_0_4" x1="10.9566" y1="1.68769" x2="17.7646" y2="3.82486" gradientUnits="userSpaceOnUse">
<stop offset="0.0566" stop-color="#0291EB"/>
<stop offset="0.79" stop-color="#0C8ACB"/>
</linearGradient>
<linearGradient id="paint4_linear_0_4" x1="3.64685" y1="19.6197" x2="10.9543" y2="22.3976" gradientUnits="userSpaceOnUse">
<stop offset="0.1324" stop-color="#F2E913"/>
<stop offset="0.2977" stop-color="#EBE716"/>
<stop offset="0.5306" stop-color="#D9E01F"/>
<stop offset="0.8023" stop-color="#BBD62D"/>
<stop offset="0.9829" stop-color="#A3CD39"/>
</linearGradient>
<linearGradient id="paint5_linear_0_4" x1="2.03383" y1="11.8221" x2="4.91486" y2="4.19695" gradientUnits="userSpaceOnUse">
<stop offset="0.0698" stop-color="#A3CD39"/>
<stop offset="0.2599" stop-color="#81C55F"/>
<stop offset="0.9216" stop-color="#0FA8E0"/>
</linearGradient>
</defs>
</svg>
